HIERARCHY
ROOT Hips
{
	OFFSET -0.001795 -0.223333 0.028219
	CHANNELS 6 Xposition Yposition Zposition Zrotation Yrotation Xrotation 
	JOINT LeftUpLeg
	{
		OFFSET 0.069520 -0.091406 -0.006815
		CHANNELS 3 Zrotation Yrotation Xrotation
		JOINT LeftLeg
		{
			OFFSET 0.034277 -0.375199 -0.004496
			CHANNELS 3 Zrotation Yrotation Xrotation
			JOINT LeftFoot
			{
				OFFSET -0.013596 -0.397961 -0.043693
				CHANNELS 3 Zrotation Yrotation Xrotation
				JOINT LeftToe
				{
					OFFSET 0.026358 -0.055791 0.119288
					CHANNELS 3 Zrotation Yrotation Xrotation
					End Site
					{
						OFFSET 0.000000 0.000000 0.000000
					}
				}
			}
		}
	}
	JOINT RightUpLeg
	{
		OFFSET -0.067670 -0.090522 -0.004320
		CHANNELS 3 Zrotation Yrotation Xrotation
		JOINT RightLeg
		{
			OFFSET -0.038290 -0.382569 -0.008850
			CHANNELS 3 Zrotation Yrotation Xrotation
			JOINT RightFoot
			{
				OFFSET 0.015774 -0.398415 -0.042312
				CHANNELS 3 Zrotation Yrotation Xrotation
				JOINT RightToe
				{
					OFFSET -0.025372 -0.048144 0.123348
					CHANNELS 3 Zrotation Yrotation Xrotation
					End Site
					{
						OFFSET 0.000000 0.000000 0.000000
					}
				}
			}
		}
	}
	JOINT Spine
	{
		OFFSET -0.002533 0.108963 -0.026696
		CHANNELS 3 Zrotation Yrotation Xrotation
		JOINT Spine1
		{
			OFFSET 0.005487 0.135180 0.001092
			CHANNELS 3 Zrotation Yrotation Xrotation
			JOINT Spine2
			{
				OFFSET 0.001457 0.052922 0.025425
				CHANNELS 3 Zrotation Yrotation Xrotation
				JOINT Neck
				{
					OFFSET -0.002778 0.213870 -0.042857
					CHANNELS 3 Zrotation Yrotation Xrotation
					JOINT Head
					{
						OFFSET 0.005152 0.064970 0.051349
						CHANNELS 3 Zrotation Yrotation Xrotation
						End Site
						{
							OFFSET 0.000000 0.000000 0.000000
						}
					}
				}
				JOINT LeftShoulder
				{
					OFFSET 0.078845 0.121749 -0.034090
					CHANNELS 3 Zrotation Yrotation Xrotation
					JOINT LeftArm
					{
						OFFSET 0.090977 0.030469 -0.008868
						CHANNELS 3 Zrotation Yrotation Xrotation
						JOINT LeftForeArm
						{
							OFFSET 0.259612 -0.012772 -0.027456
							CHANNELS 3 Zrotation Yrotation Xrotation
							JOINT LeftHand
							{
								OFFSET 0.249234 0.008986 -0.001171
								CHANNELS 3 Zrotation Yrotation Xrotation
								End Site
								{
									OFFSET 0.000000 0.000000 0.000000
								}
							}
						}
					}
				}
				JOINT RightShoulder
				{
					OFFSET -0.081759 0.118833 -0.038615
					CHANNELS 3 Zrotation Yrotation Xrotation
					JOINT RightArm
					{
						OFFSET -0.096012 0.032551 -0.009143
						CHANNELS 3 Zrotation Yrotation Xrotation
						JOINT RightForeArm
						{
							OFFSET -0.253742 -0.013329 -0.021401
							CHANNELS 3 Zrotation Yrotation Xrotation
							JOINT RightHand
							{
								OFFSET -0.255298 0.007772 -0.005559
								CHANNELS 3 Zrotation Yrotation Xrotation
								End Site
								{
									OFFSET 0.000000 0.000000 0.000000
								}
							}
						}
					}
				}
			}
		}
	}
}
MOTION
Frames: 8
Frame Time: 0.050000
-0.584642 0.802216 0.181507 4.395097 -10.236308 1.793336 32.210423 4.031698 -13.916014 -9.906956 4.395115 32.682618 3.900359 9.100455 5.395606 0.000000 0.000000 0.000000 -27.970349 -2.723189 -41.763150 23.573503 -9.536217 50.461221 -12.641705 -30.772994 0.517102 0.000000 0.000000 0.000000 7.553931 -3.017688 44.272620 0.307017 -0.139719 4.417406 0.470592 -8.921225 4.917676 -2.601372 1.798754 -33.486883 0.000000 0.000000 0.000000 -27.073290 -23.893566 17.767899 -29.178929 -29.811571 1.786739 33.195919 -33.650139 -7.838793 0.000000 0.000000 0.000000 20.636457 28.594537 10.200215 24.033060 17.793923 1.633138 -32.728890 29.175104 -8.204649 0.000000 0.000000 0.000000 
-0.583138 0.794251 0.161500 4.759378 -9.490190 1.971197 31.455379 3.215772 -11.444698 -8.640192 3.826334 33.405258 3.939177 8.884380 3.392135 0.000000 0.000000 0.000000 -27.704563 -3.088573 -44.597967 24.290722 -10.568092 52.290818 -14.266264 -33.714241 2.265520 0.000000 0.000000 0.000000 7.990385 -3.330499 43.999603 -0.226148 0.130589 4.456777 -0.051357 -7.957820 4.153462 -3.995277 2.517435 -32.650280 0.000000 0.000000 0.000000 -29.576311 -24.121048 18.201311 -29.923383 -27.369171 1.376566 34.128744 -36.881562 -9.114849 0.000000 0.000000 0.000000 20.726358 29.095990 10.982472 22.329379 17.844650 1.396419 -33.564244 25.730152 -7.196964 0.000000 0.000000 0.000000 
-0.576644 0.783377 0.139145 4.826338 -7.001520 2.323678 31.380413 2.658808 -10.918130 -7.165707 2.909218 34.377411 3.347181 7.439794 1.663005 0.000000 0.000000 0.000000 -28.937825 -4.368223 -46.038680 25.837727 -12.117196 51.573325 -14.732968 -34.440121 2.491610 0.000000 0.000000 0.000000 8.554912 -4.097705 44.558665 -0.110524 0.037219 3.649791 -0.900837 -7.168477 4.049951 -3.590759 2.561735 -33.211739 0.000000 0.000000 0.000000 -29.747423 -24.535850 17.847662 -31.916200 -26.263820 1.512773 31.999780 -38.139618 -8.791218 0.000000 0.000000 0.000000 20.856634 30.305902 12.368217 21.066242 18.499137 1.220706 -33.178755 21.846054 -5.757284 0.000000 0.000000 0.000000 
-0.565849 0.773283 0.114267 5.084073 -6.115524 2.675650 30.939880 2.281323 -10.134934 -6.392550 2.495244 34.991107 3.259015 6.571759 -1.190746 0.000000 0.000000 0.000000 -29.547971 -5.202474 -48.704250 25.929285 -12.719231 52.482034 -15.177793 -34.893010 3.761810 0.000000 0.000000 0.000000 8.383232 -4.217580 44.619209 -1.075364 0.523846 3.534847 -0.824515 -6.596154 3.821420 -4.865577 3.200652 -34.359994 0.000000 0.000000 0.000000 -29.876572 -25.159732 17.983102 -32.969320 -25.026201 1.419815 29.922229 -38.999389 -8.344276 0.000000 0.000000 0.000000 20.922638 30.828035 13.028859 20.135832 19.812817 1.216763 -32.237344 19.453240 -4.805346 0.000000 0.000000 0.000000 
-0.551556 0.767113 0.086511 4.766890 -4.321954 2.666082 31.412473 2.266693 -11.233831 -6.058683 2.213851 37.240517 2.972204 6.069531 -0.734374 0.000000 0.000000 0.000000 -29.990491 -6.177214 -49.937931 25.907810 -12.973937 51.621246 -14.887631 -33.787560 5.098681 0.000000 0.000000 0.000000 8.441197 -4.721983 45.816446 -1.105801 0.520612 2.770778 -1.324809 -5.766435 4.372520 -4.433089 3.210249 -35.192754 0.000000 0.000000 0.000000 -29.520246 -26.276696 18.040179 -33.518715 -25.095100 1.640107 26.407236 -38.396807 -7.095729 0.000000 0.000000 0.000000 20.206918 32.350795 14.404640 19.663471 21.794369 1.237775 -32.045623 18.122522 -4.295913 0.000000 0.000000 0.000000 
-0.533536 0.763537 0.056544 4.427521 -4.024862 3.071789 31.071478 2.249290 -11.746476 -5.821953 2.172233 39.155842 2.997016 5.575377 -2.552053 0.000000 0.000000 0.000000 -30.048340 -6.617017 -51.928559 25.444429 -12.509972 50.280478 -15.397232 -33.920850 7.935334 0.000000 0.000000 0.000000 8.048581 -4.710943 46.634881 -1.727622 0.829466 2.204051 -1.098528 -5.257916 4.582376 -5.641553 3.758224 -37.529476 0.000000 0.000000 0.000000 -30.028017 -26.930371 18.453362 -33.796252 -24.583706 1.571996 24.406552 -37.667485 -6.327441 0.000000 0.000000 0.000000 18.860506 33.413585 15.004548 20.746423 23.737066 1.528936 -32.548543 19.158040 -4.623585 0.000000 0.000000 0.000000 
-0.512947 0.761457 0.025185 3.972267 -3.404635 3.940286 30.603197 2.493021 -14.167912 -5.488610 2.109701 42.772167 2.641093 4.784356 -2.507280 0.000000 0.000000 0.000000 -29.799357 -7.052857 -53.916378 25.515421 -12.195767 47.853192 -16.588969 -34.816248 11.859970 0.000000 0.000000 0.000000 7.597500 -4.718274 47.008276 -1.469047 0.698353 0.371389 -1.523957 -4.668021 6.133069 -5.377856 3.753152 -38.955738 0.000000 0.000000 0.000000 -29.786811 -27.391130 18.487259 -34.527188 -24.857926 1.701335 23.122460 -38.342751 -6.006752 0.000000 0.000000 0.000000 17.727414 34.649940 15.816796 21.990265 25.913796 1.834878 -33.668330 22.768834 -5.776429 0.000000 0.000000 0.000000 
-0.490427 0.757358 -0.006629 3.414036 -2.198060 3.873168 29.860979 2.519567 -15.926173 -3.972339 1.188450 47.331812 1.809963 1.545455 -5.733267 0.000000 0.000000 0.000000 -30.446416 -7.903582 -54.225164 25.613508 -11.689590 44.424062 -17.244524 -34.441859 16.365941 0.000000 0.000000 0.000000 7.331660 -4.936078 47.581755 -1.915648 0.909820 -0.241418 -1.237811 -4.646980 6.231619 -5.570494 3.870132 -39.669043 0.000000 0.000000 0.000000 -30.830213 -28.032451 19.107004 -34.090448 -24.135940 1.483448 21.810624 -38.259694 -5.603049 0.000000 0.000000 0.000000 15.903940 34.479652 15.415246 25.125242 28.102028 2.621484 -35.139295 27.190455 -7.418553 0.000000 0.000000 0.000000 
